<?xml version="1.0" encoding="utf-8"?><!-- Uploaded to: SVG Repo, www.svgrepo.com, Generator: SVG Repo Mixer Tools -->
<svg version="1.1" id="Uploaded to svgrepo.com" xmlns="http://www.w3.org/2000/svg" xmlns:xlink="http://www.w3.org/1999/xlink" 
	 width="800px" height="800px" viewBox="0 0 32 32" xml:space="preserve">
<style type="text/css">
	.feather_een{fill:#0B1719;}
</style>
<path class="feather_een" d="M19.5,14h-7c-0.276,0-0.5,0.224-0.5,0.5v0c0,0.276,0.224,0.5,0.5,0.5h7c0.276,0,0.5-0.224,0.5-0.5v0
	C20,14.224,19.776,14,19.5,14z M19.5,16h-7c-0.276,0-0.5,0.224-0.5,0.5l0,0c0,0.276,0.224,0.5,0.5,0.5h7c0.276,0,0.5-0.224,0.5-0.5
	l0,0C20,16.224,19.776,16,19.5,16z M19.5,18h-7c-0.276,0-0.5,0.224-0.5,0.5l0,0c0,0.276,0.224,0.5,0.5,0.5h7
	c0.276,0,0.5-0.224,0.5-0.5l0,0C20,18.224,19.776,18,19.5,18z M28,6v23c0,1.657-1.343,3-3,3H7c-1.657,0-3-1.343-3-3V6
	c0-1.657,1.343-3,3-3h3c0-0.552,0.448-1,1-1h2.184C13.597,0.837,14.696,0,16,0s2.403,0.837,2.816,2H21c0.552,0,1,0.448,1,1h3
	C26.657,3,28,4.343,28,6z M10,6H7v23h18V6h-3c0,0.552-0.448,1-1,1H11C10.448,7,10,6.552,10,6z M11,6h10V3h-2.89l-0.236-0.665
	C17.59,1.536,16.837,1,16,1s-1.59,0.536-1.874,1.335L13.89,3H11V6z M27,6c0-1.105-0.895-2-2-2h-3v1h3c0.552,0,1,0.448,1,1v23
	c0,0.552-0.448,1-1,1H7c-0.552,0-1-0.448-1-1V6c0-0.552,0.448-1,1-1h3V4H7C5.895,4,5,4.895,5,6v23c0,1.105,0.895,2,2,2h18
	c1.105,0,2-0.895,2-2V6z"/>
</svg>